ffmpeg started on 2025-05-05 at 19:47:14
Report written to "D:\Convert\FFMetrics\reports\ssim_report-6.txt"
Log level: 32
Command line:
ffmpeg -hide_banner -nostdin -i "G:\\\xc0\xed\xe8\xec\xe5\\\xce\xed\xe3\xee\xe8\xed\xe3\xe8\\!_35_\xcb\xe5\xf2\xee_2024\\JamClub\\\xdf \xef\xe0\xf0\xe8\xf0\xee\xe2\xe0\xeb \xe2\xf1\xb8 \xe2\xf0\xe5\xec\xff, \xf7\xf2\xee\xe1\xfb \xf1\xf2\xe0\xf2\xfc \xf1\xe8\xeb\xfc\xed\xe5\xe9\xf8\xe8\xec \xe0\xe2\xe0\xed\xf2\xfe\xf0\xe8\xf1\xf2\xee\xec\\JamClub_I_Parry_Everything_07_1080p_HEVC.mkv" -i "G:\\\xc0\xed\xe8\xec\xe5\\\xce\xed\xe3\xee\xe8\xed\xe3\xe8\\!_35_\xcb\xe5\xf2\xee_2024\\JamClub\\\xdf \xef\xe0\xf0\xe8\xf0\xee\xe2\xe0\xeb \xe2\xf1\xb8 \xe2\xf0\xe5\xec\xff, \xf7\xf2\xee\xe1\xfb \xf1\xf2\xe0\xf2\xfc \xf1\xe8\xeb\xfc\xed\xe5\xe9\xf8\xe8\xec \xe0\xe2\xe0\xed\xf2\xfe\xf0\xe8\xf1\xf2\xee\xec\\JamClub_I_Parry_Everything_07_1080p.mp4" -lavfi "[0:v]settb=AVTB,setpts=PTS-STARTPTS,format=pix_fmts=yuv420p10,fps=24000/1001,scale=1920:1080:flags=bicubic[main];[1:v]settb=AVTB,setpts=PTS-STARTPTS,format=pix_fmts=yuv420p,fps=24000/1001,scale=1920:1080:flags=bicubic[ref];[main][ref]ssim=eof_action=endall:stats_file='D\\:/Convert/FFMetrics/logs/ssim_logfile-6.txt'" -f null -
Input #0, matroska,webm, from 'G:\Аниме\Онгоинги\!_35_Лето_2024\JamClub\Я парировал всё время, чтобы стать сильнейшим авантюристом\JamClub_I_Parry_Everything_07_1080p_HEVC.mkv':
  Metadata:
    COMPATIBLE_BRANDS: isomiso2avc1mp41
    MAJOR_BRAND     : isom
    MINOR_VERSION   : 512
    ENCODER         : Lavf61.7.100
  Duration: 00:24:04.69, start: -0.001000, bitrate: 1393 kb/s
  Stream #0:0: Video: hevc (Main 10), yuv420p10le(tv, bt709, progressive), 1920x1080 [SAR 1:1 DAR 16:9], 23.98 fps, 23.98 tbr, 1k tbn (default)
      Metadata:
        HANDLER_NAME    : VideoHandler
        VENDOR_ID       : [0][0][0][0]
        ENCODER         : Lavc61.19.100 libx265
        BPS             : 1195305
        DURATION        : 00:24:04.609708333
        NUMBER_OF_FRAMES: 34636
        NUMBER_OF_BYTES : 215843561
        _STATISTICS_WRITING_APP: mkvpropedit v66.0.0 ('Josie') 64-bit
        _STATISTICS_WRITING_DATE_UTC: 2025-05-05 10:59:21
        _STATISTICS_TAGS: BPS DURATION NUMBER_OF_FRAMES NUMBER_OF_BYTES
  Stream #0:1(eng): Audio: aac (LC), 48000 Hz, stereo, fltp (default)
      Metadata:
        HANDLER_NAME    : SoundHandler
        VENDOR_ID       : [0][0][0][0]
        ENCODER         : Lavc61.19.100 aac
        BPS             : 194527
        DURATION        : 00:24:04.653000000
        NUMBER_OF_FRAMES: 67719
        NUMBER_OF_BYTES : 35128140
        _STATISTICS_WRITING_APP: mkvpropedit v66.0.0 ('Josie') 64-bit
        _STATISTICS_WRITING_DATE_UTC: 2025-05-05 10:59:21
        _STATISTICS_TAGS: BPS DURATION NUMBER_OF_FRAMES NUMBER_OF_BYTES
Input #1, mov,mp4,m4a,3gp,3g2,mj2, from 'G:\Аниме\Онгоинги\!_35_Лето_2024\JamClub\Я парировал всё время, чтобы стать сильнейшим авантюристом\JamClub_I_Parry_Everything_07_1080p.mp4':
  Metadata:
    major_brand     : isom
    minor_version   : 512
    compatible_brands: isomiso2avc1mp41
    encoder         : Lavf60.16.100
  Duration: 00:24:04.67, start: 0.000000, bitrate: 4397 kb/s
  Stream #1:0[0x1](und): Video: h264 (High) (avc1 / 0x31637661), yuv420p(progressive), 1920x1080 [SAR 1:1 DAR 16:9], 4199 kb/s, 23.98 fps, 23.98 tbr, 90k tbn (default)
      Metadata:
        handler_name    : VideoHandler
        vendor_id       : [0][0][0][0]
  Stream #1:1[0x2](eng): Audio: aac (LC) (mp4a / 0x6134706D), 48000 Hz, stereo, fltp, 191 kb/s (default)
      Metadata:
        handler_name    : SoundHandler
        vendor_id       : [0][0][0][0]
Stream mapping:
  Stream #0:0 (hevc) -> settb:default
  Stream #1:0 (h264) -> settb:default
  ssim:default -> Stream #0:0 (wrapped_avframe)
  Stream #0:1 -> #0:1 (aac (native) -> pcm_s16le (native))
Output #0, null, to 'pipe:':
  Metadata:
    COMPATIBLE_BRANDS: isomiso2avc1mp41
    MAJOR_BRAND     : isom
    MINOR_VERSION   : 512
    encoder         : Lavf61.7.100
  Stream #0:0: Video: wrapped_avframe, yuv420p10le(tv, bt709, progressive), 1920x1080 [SAR 1:1 DAR 16:9], q=2-31, 200 kb/s, 23.98 fps, 23.98 tbn
      Metadata:
        encoder         : Lavc61.19.100 wrapped_avframe
  Stream #0:1(eng): Audio: pcm_s16le, 48000 Hz, stereo, s16, 1536 kb/s (default)
      Metadata:
        HANDLER_NAME    : SoundHandler
        VENDOR_ID       : [0][0][0][0]
        _STATISTICS_TAGS: BPS DURATION NUMBER_OF_FRAMES NUMBER_OF_BYTES
        BPS             : 194527
        DURATION        : 00:24:04.653000000
        NUMBER_OF_FRAMES: 67719
        NUMBER_OF_BYTES : 35128140
        _STATISTICS_WRITING_APP: mkvpropedit v66.0.0 ('Josie') 64-bit
        _STATISTICS_WRITING_DATE_UTC: 2025-05-05 10:59:21
        encoder         : Lavc61.19.100 pcm_s16le
frame=  102 fps=0.0 q=-0.0 size=N/A time=00:00:04.25 bitrate=N/A speed= 8.3x    frame=  259 fps=252 q=-0.0 size=N/A time=00:00:10.80 bitrate=N/A speed=10.5x    frame=  444 fps=288 q=-0.0 size=N/A time=00:00:18.51 bitrate=N/A speed=  12x    frame=  666 fps=324 q=-0.0 size=N/A time=00:00:27.77 bitrate=N/A speed=13.5x    frame=  895 fps=348 q=-0.0 size=N/A time=00:00:37.32 bitrate=N/A speed=14.5x    frame= 1098 fps=355 q=-0.0 size=N/A time=00:00:45.79 bitrate=N/A speed=14.8x    frame= 1296 fps=359 q=-0.0 size=N/A time=00:00:54.05 bitrate=N/A speed=  15x    frame= 1449 fps=351 q=-0.0 size=N/A time=00:01:00.43 bitrate=N/A speed=14.7x    frame= 1651 fps=356 q=-0.0 size=N/A time=00:01:08.86 bitrate=N/A speed=14.9x    frame= 1854 fps=360 q=-0.0 size=N/A time=00:01:17.32 bitrate=N/A speed=  15x    frame= 2039 fps=359 q=-0.0 size=N/A time=00:01:25.04 bitrate=N/A speed=  15x    frame= 2168 fps=350 q=-0.0 size=N/A time=00:01:30.42 bitrate=N/A speed=14.6x    frame= 2346 fps=350 q=-0.0 size=N/A time=00:01:37.84 bitrate=N/A speed=14.6x    frame= 2530 fps=351 q=-0.0 size=N/A time=00:01:45.52 bitrate=N/A speed=14.6x    frame= 2754 fps=356 q=-0.0 size=N/A time=00:01:54.86 bitrate=N/A speed=14.8x    frame= 2958 fps=359 q=-0.0 size=N/A time=00:02:03.37 bitrate=N/A speed=  15x    frame= 3209 fps=366 q=-0.0 size=N/A time=00:02:13.84 bitrate=N/A speed=15.3x    frame= 3478 fps=375 q=-0.0 size=N/A time=00:02:25.06 bitrate=N/A speed=15.6x    frame= 3757 fps=384 q=-0.0 size=N/A time=00:02:36.69 bitrate=N/A speed=  16x    frame= 4024 fps=390 q=-0.0 size=N/A time=00:02:47.83 bitrate=N/A speed=16.3x    frame= 4299 fps=397 q=-0.0 size=N/A time=00:02:59.30 bitrate=N/A speed=16.6x    frame= 4518 fps=398 q=-0.0 size=N/A time=00:03:08.43 bitrate=N/A speed=16.6x    frame= 4781 fps=403 q=-0.0 size=N/A time=00:03:19.40 bitrate=N/A speed=16.8x    frame= 5059 fps=409 q=-0.0 size=N/A time=00:03:31.00 bitrate=N/A speed=  17x    frame= 5285 fps=410 q=-0.0 size=N/A time=00:03:40.42 bitrate=N/A speed=17.1x    frame= 5525 fps=412 q=-0.0 size=N/A time=00:03:50.43 bitrate=N/A speed=17.2x    frame= 5778 fps=415 q=-0.0 size=N/A time=00:04:00.99 bitrate=N/A speed=17.3x    frame= 6006 fps=416 q=-0.0 size=N/A time=00:04:10.50 bitrate=N/A speed=17.4x    frame= 6201 fps=415 q=-0.0 size=N/A time=00:04:18.63 bitrate=N/A speed=17.3x    frame= 6447 fps=417 q=-0.0 size=N/A time=00:04:28.89 bitrate=N/A speed=17.4x    frame= 6657 fps=416 q=-0.0 size=N/A time=00:04:37.65 bitrate=N/A speed=17.4x    frame= 6828 fps=414 q=-0.0 size=N/A time=00:04:44.78 bitrate=N/A speed=17.3x    frame= 7036 fps=413 q=-0.0 size=N/A time=00:04:53.45 bitrate=N/A speed=17.2x    frame= 7239 fps=413 q=-0.0 size=N/A time=00:05:01.92 bitrate=N/A speed=17.2x    frame= 7461 fps=414 q=-0.0 size=N/A time=00:05:11.18 bitrate=N/A speed=17.2x    frame= 7700 fps=415 q=-0.0 size=N/A time=00:05:21.15 bitrate=N/A speed=17.3x    frame= 7855 fps=412 q=-0.0 size=N/A time=00:05:27.61 bitrate=N/A speed=17.2x    frame= 8046 fps=411 q=-0.0 size=N/A time=00:05:35.58 bitrate=N/A speed=17.1x    frame= 8279 fps=412 q=-0.0 size=N/A time=00:05:45.30 bitrate=N/A speed=17.2x    frame= 8523 fps=413 q=-0.0 size=N/A time=00:05:55.48 bitrate=N/A speed=17.2x    frame= 8761 fps=414 q=-0.0 size=N/A time=00:06:05.40 bitrate=N/A speed=17.3x    frame= 9007 fps=416 q=-0.0 size=N/A time=00:06:15.66 bitrate=N/A speed=17.4x    frame= 9274 fps=418 q=-0.0 size=N/A time=00:06:26.80 bitrate=N/A speed=17.4x    frame= 9541 fps=421 q=-0.0 size=N/A time=00:06:37.93 bitrate=N/A speed=17.5x    frame= 9812 fps=423 q=-0.0 size=N/A time=00:06:49.24 bitrate=N/A speed=17.6x    frame=10076 fps=425 q=-0.0 size=N/A time=00:07:00.25 bitrate=N/A speed=17.7x    frame=10352 fps=427 q=-0.0 size=N/A time=00:07:11.76 bitrate=N/A speed=17.8x    frame=10606 fps=429 q=-0.0 size=N/A time=00:07:22.35 bitrate=N/A speed=17.9x    frame=10858 fps=430 q=-0.0 size=N/A time=00:07:32.86 bitrate=N/A speed=17.9x    frame=11091 fps=430 q=-0.0 size=N/A time=00:07:42.58 bitrate=N/A speed=17.9x    frame=11359 fps=432 q=-0.0 size=N/A time=00:07:53.76 bitrate=N/A speed=  18x    frame=11600 fps=433 q=-0.0 size=N/A time=00:08:03.81 bitrate=N/A speed=  18x    frame=11883 fps=435 q=-0.0 size=N/A time=00:08:15.62 bitrate=N/A speed=18.1x    frame=12155 fps=437 q=-0.0 size=N/A time=00:08:26.96 bitrate=N/A speed=18.2x    frame=12425 fps=438 q=-0.0 size=N/A time=00:08:38.22 bitrate=N/A speed=18.3x    frame=12683 fps=439 q=-0.0 size=N/A time=00:08:48.98 bitrate=N/A speed=18.3x    frame=12908 fps=439 q=-0.0 size=N/A time=00:08:58.37 bitrate=N/A speed=18.3x    frame=13156 fps=440 q=-0.0 size=N/A time=00:09:08.71 bitrate=N/A speed=18.3x    frame=13420 fps=441 q=-0.0 size=N/A time=00:09:19.72 bitrate=N/A speed=18.4x    frame=13668 fps=442 q=-0.0 size=N/A time=00:09:30.06 bitrate=N/A speed=18.4x    frame=13927 fps=443 q=-0.0 size=N/A time=00:09:40.87 bitrate=N/A speed=18.5x    frame=14154 fps=443 q=-0.0 size=N/A time=00:09:50.33 bitrate=N/A speed=18.5x    frame=14421 fps=444 q=-0.0 size=N/A time=00:10:01.47 bitrate=N/A speed=18.5x    frame=14672 fps=445 q=-0.0 size=N/A time=00:10:11.94 bitrate=N/A speed=18.5x    frame=14912 fps=445 q=-0.0 size=N/A time=00:10:21.95 bitrate=N/A speed=18.6x    frame=15147 fps=445 q=-0.0 size=N/A time=00:10:31.75 bitrate=N/A speed=18.6x    frame=15355 fps=444 q=-0.0 size=N/A time=00:10:40.43 bitrate=N/A speed=18.5x    frame=15595 fps=445 q=-0.0 size=N/A time=00:10:50.44 bitrate=N/A speed=18.6x    frame=15791 fps=444 q=-0.0 size=N/A time=00:10:58.61 bitrate=N/A speed=18.5x    frame=16004 fps=443 q=-0.0 size=N/A time=00:11:07.50 bitrate=N/A speed=18.5x    frame=16228 fps=443 q=-0.0 size=N/A time=00:11:16.84 bitrate=N/A speed=18.5x    frame=16469 fps=444 q=-0.0 size=N/A time=00:11:26.89 bitrate=N/A speed=18.5x    frame=16688 fps=443 q=-0.0 size=N/A time=00:11:36.02 bitrate=N/A speed=18.5x    frame=16908 fps=443 q=-0.0 size=N/A time=00:11:45.20 bitrate=N/A speed=18.5x    frame=17125 fps=443 q=-0.0 size=N/A time=00:11:54.25 bitrate=N/A speed=18.5x    frame=17314 fps=442 q=-0.0 size=N/A time=00:12:02.13 bitrate=N/A speed=18.4x    frame=17495 fps=441 q=-0.0 size=N/A time=00:12:09.68 bitrate=N/A speed=18.4x    frame=17702 fps=440 q=-0.0 size=N/A time=00:12:18.32 bitrate=N/A speed=18.4x    frame=17941 fps=440 q=-0.0 size=N/A time=00:12:28.28 bitrate=N/A speed=18.4x    frame=18118 fps=439 q=-0.0 size=N/A time=00:12:35.67 bitrate=N/A speed=18.3x    frame=18347 fps=439 q=-0.0 size=N/A time=00:12:45.22 bitrate=N/A speed=18.3x    frame=18563 fps=439 q=-0.0 size=N/A time=00:12:54.23 bitrate=N/A speed=18.3x    frame=18779 fps=439 q=-0.0 size=N/A time=00:13:03.24 bitrate=N/A speed=18.3x    frame=18964 fps=438 q=-0.0 size=N/A time=00:13:10.95 bitrate=N/A speed=18.3x    frame=19208 fps=438 q=-0.0 size=N/A time=00:13:21.13 bitrate=N/A speed=18.3x    frame=19442 fps=438 q=-0.0 size=N/A time=00:13:30.89 bitrate=N/A speed=18.3x    frame=19630 fps=437 q=-0.0 size=N/A time=00:13:38.73 bitrate=N/A speed=18.2x    frame=19846 fps=437 q=-0.0 size=N/A time=00:13:47.74 bitrate=N/A speed=18.2x    frame=20070 fps=437 q=-0.0 size=N/A time=00:13:57.08 bitrate=N/A speed=18.2x    frame=20286 fps=437 q=-0.0 size=N/A time=00:14:06.09 bitrate=N/A speed=18.2x    frame=20540 fps=438 q=-0.0 size=N/A time=00:14:16.68 bitrate=N/A speed=18.2x    frame=20772 fps=438 q=-0.0 size=N/A time=00:14:26.36 bitrate=N/A speed=18.3x    frame=21050 fps=439 q=-0.0 size=N/A time=00:14:37.96 bitrate=N/A speed=18.3x    frame=21303 fps=439 q=-0.0 size=N/A time=00:14:48.51 bitrate=N/A speed=18.3x    frame=21577 fps=440 q=-0.0 size=N/A time=00:14:59.94 bitrate=N/A speed=18.4x    frame=21831 fps=441 q=-0.0 size=N/A time=00:15:10.53 bitrate=N/A speed=18.4x    frame=22098 fps=442 q=-0.0 size=N/A time=00:15:21.67 bitrate=N/A speed=18.4x    frame=22364 fps=442 q=-0.0 size=N/A time=00:15:32.76 bitrate=N/A speed=18.5x    frame=22636 fps=443 q=-0.0 size=N/A time=00:15:44.10 bitrate=N/A speed=18.5x    frame=22898 fps=444 q=-0.0 size=N/A time=00:15:55.03 bitrate=N/A speed=18.5x    frame=23169 fps=445 q=-0.0 size=N/A time=00:16:06.34 bitrate=N/A speed=18.5x    frame=23403 fps=445 q=-0.0 size=N/A time=00:16:16.10 bitrate=N/A speed=18.6x    frame=23657 fps=445 q=-0.0 size=N/A time=00:16:26.69 bitrate=N/A speed=18.6x    frame=23917 fps=446 q=-0.0 size=N/A time=00:16:37.53 bitrate=N/A speed=18.6x    frame=24191 fps=447 q=-0.0 size=N/A time=00:16:48.96 bitrate=N/A speed=18.6x    frame=24451 fps=447 q=-0.0 size=N/A time=00:16:59.81 bitrate=N/A speed=18.7x    frame=24709 fps=448 q=-0.0 size=N/A time=00:17:10.57 bitrate=N/A speed=18.7x    frame=24961 fps=448 q=-0.0 size=N/A time=00:17:21.08 bitrate=N/A speed=18.7x    frame=25228 fps=449 q=-0.0 size=N/A time=00:17:32.21 bitrate=N/A speed=18.7x    frame=25476 fps=449 q=-0.0 size=N/A time=00:17:42.56 bitrate=N/A speed=18.7x    frame=25739 fps=450 q=-0.0 size=N/A time=00:17:53.53 bitrate=N/A speed=18.8x    frame=26017 fps=450 q=-0.0 size=N/A time=00:18:05.12 bitrate=N/A speed=18.8x    frame=26269 fps=451 q=-0.0 size=N/A time=00:18:15.63 bitrate=N/A speed=18.8x    frame=26520 fps=451 q=-0.0 size=N/A time=00:18:26.10 bitrate=N/A speed=18.8x    frame=26797 fps=452 q=-0.0 size=N/A time=00:18:37.65 bitrate=N/A speed=18.8x    frame=27039 fps=452 q=-0.0 size=N/A time=00:18:47.75 bitrate=N/A speed=18.8x    frame=27297 fps=452 q=-0.0 size=N/A time=00:18:58.51 bitrate=N/A speed=18.9x    frame=27523 fps=452 q=-0.0 size=N/A time=00:19:07.93 bitrate=N/A speed=18.9x    frame=27766 fps=452 q=-0.0 size=N/A time=00:19:18.07 bitrate=N/A speed=18.9x    frame=28018 fps=453 q=-0.0 size=N/A time=00:19:28.58 bitrate=N/A speed=18.9x    frame=28259 fps=453 q=-0.0 size=N/A time=00:19:38.63 bitrate=N/A speed=18.9x    frame=28510 fps=453 q=-0.0 size=N/A time=00:19:49.10 bitrate=N/A speed=18.9x    frame=28736 fps=453 q=-0.0 size=N/A time=00:19:58.53 bitrate=N/A speed=18.9x    frame=28964 fps=453 q=-0.0 size=N/A time=00:20:08.04 bitrate=N/A speed=18.9x    frame=29213 fps=453 q=-0.0 size=N/A time=00:20:18.42 bitrate=N/A speed=18.9x    frame=29460 fps=453 q=-0.0 size=N/A time=00:20:28.72 bitrate=N/A speed=18.9x    frame=29698 fps=453 q=-0.0 size=N/A time=00:20:38.65 bitrate=N/A speed=18.9x    frame=29920 fps=453 q=-0.0 size=N/A time=00:20:47.91 bitrate=N/A speed=18.9x    frame=30168 fps=453 q=-0.0 size=N/A time=00:20:58.25 bitrate=N/A speed=18.9x    frame=30456 fps=454 q=-0.0 size=N/A time=00:21:10.26 bitrate=N/A speed=18.9x    frame=30727 fps=455 q=-0.0 size=N/A time=00:21:21.57 bitrate=N/A speed=  19x    frame=30946 fps=454 q=-0.0 size=N/A time=00:21:30.70 bitrate=N/A speed=  19x    frame=31205 fps=455 q=-0.0 size=N/A time=00:21:41.50 bitrate=N/A speed=  19x    frame=31457 fps=455 q=-0.0 size=N/A time=00:21:52.01 bitrate=N/A speed=  19x    frame=31719 fps=455 q=-0.0 size=N/A time=00:22:02.94 bitrate=N/A speed=  19x    frame=31976 fps=456 q=-0.0 size=N/A time=00:22:13.66 bitrate=N/A speed=  19x    frame=32225 fps=456 q=-0.0 size=N/A time=00:22:24.05 bitrate=N/A speed=  19x    frame=32492 fps=456 q=-0.0 size=N/A time=00:22:35.18 bitrate=N/A speed=  19x    frame=32734 fps=457 q=-0.0 size=N/A time=00:22:45.28 bitrate=N/A speed=  19x    frame=32911 fps=456 q=-0.0 size=N/A time=00:22:52.66 bitrate=N/A speed=  19x    frame=33089 fps=455 q=-0.0 size=N/A time=00:23:00.08 bitrate=N/A speed=  19x    frame=33312 fps=455 q=-0.0 size=N/A time=00:23:09.38 bitrate=N/A speed=  19x    frame=33516 fps=454 q=-0.0 size=N/A time=00:23:17.89 bitrate=N/A speed=18.9x    frame=33713 fps=454 q=-0.0 size=N/A time=00:23:26.11 bitrate=N/A speed=18.9x    frame=33880 fps=453 q=-0.0 size=N/A time=00:23:33.07 bitrate=N/A speed=18.9x    frame=34077 fps=452 q=-0.0 size=N/A time=00:23:41.29 bitrate=N/A speed=18.9x    frame=34278 fps=452 q=-0.0 size=N/A time=00:23:49.67 bitrate=N/A speed=18.9x    frame=34486 fps=452 q=-0.0 size=N/A time=00:23:58.35 bitrate=N/A speed=18.8x    [Parsed_ssim_10 @ 0000025abc28e7c0] SSIM Y:0.994309 (22.447905) U:0.993386 (21.795594) V:0.993884 (22.135565) All:0.994084 (22.279914)
[out#0/null @ 0000025ab0663ec0] video:14883KiB audio:270876KiB subtitle:0KiB other streams:0KiB global headers:0KiB muxing overhead: unknown
frame=34636 fps=452 q=-0.0 Lsize=N/A time=00:24:04.60 bitrate=N/A speed=18.8x    
